PathFileType	4	(X/Y/Z)	/Users/itak/Documents/Research/Walk-IL/dataset/trc/00481_00167.trc
DataRate	CameraRate	NumFrames	NumMarkers	Units	OrigDataRate	OrigDataStartFrame	OrigNumFrames
100.000000	100.000000	4	53	mm	100.000000	158	632
Frame#	Time	RPSI			LPSI			L3			STRN			T10			C7			CLAV			RBAK			LBAK			LSHO			LUPA			LAEL			LAOL			LWTS			LWPS			LFRA			LIFD			LHPS			LHTS			RSHO			RUPA			RAEL			RAOL			RWTS			RWPS			RFRA			RIFD			RHTS			RHPS			RBHD			LFHD			RFHD			LBHD			LHIP			RHIP			RASI			LASI			LKNE			LTHI			LANK			LTIP			LTOE			LMT1			LMT5			LHEE			RKNE			RTHI			RANK			RTIP			RTOE			RMT1			RMT5			RHEE			
		X1	Y1	Z1	X2	Y2	Z2	X3	Y3	Z3	X4	Y4	Z4	X5	Y5	Z5	X6	Y6	Z6	X7	Y7	Z7	X8	Y8	Z8	X9	Y9	Z9	X10	Y10	Z10	X11	Y11	Z11	X12	Y12	Z12	X13	Y13	Z13	X14	Y14	Z14	X15	Y15	Z15	X16	Y16	Z16	X17	Y17	Z17	X18	Y18	Z18	X19	Y19	Z19	X20	Y20	Z20	X21	Y21	Z21	X22	Y22	Z22	X23	Y23	Z23	X24	Y24	Z24	X25	Y25	Z25	X26	Y26	Z26	X27	Y27	Z27	X28	Y28	Z28	X29	Y29	Z29	X30	Y30	Z30	X31	Y31	Z31	X32	Y32	Z32	X33	Y33	Z33	X34	Y34	Z34	X35	Y35	Z35	X36	Y36	Z36	X37	Y37	Z37	X38	Y38	Z38	X39	Y39	Z39	X40	Y40	Z40	X41	Y41	Z41	X42	Y42	Z42	X43	Y43	Z43	X44	Y44	Z44	X45	Y45	Z45	X46	Y46	Z46	X47	Y47	Z47	X48	Y48	Z48	X49	Y49	Z49	X50	Y50	Z50	X51	Y51	Z51	X52	Y52	Z52	X53	Y53	Z53	

159	1.58	-1164.34375	970.403076171875	46.16546249389648	-1142.865112304688	967.710205078125	-93.91500854492188	-1139.603271484375	1059.010498046875	-6.016768932342529	-866.3155517578125	1247.914794921875	5.889697074890137	-1157.340087890625	1183.85693359375	-12.54164886474609	-1083.186889648438	1448.994506835938	1.333417296409607	-899.75537109375	1361.6162109375	-2.657254695892334	-1153.968017578125	1333.1396484375	94.76651763916016	-1112.332885742188	1401.667358398438	-99.98097229003906	-1004.319702148438	1417.477661132812	-174.0473480224609	-1015.809020996094	1298.676513671875	-271.2046813964844	-1000.869812011719	1086.286499023438	-309.6846923828125	-1072.617553710938	1070.80029296875	-236.6981201171875	-916.1476440429688	883.54052734375	-284.0530090332031	-968.6403198242188	870.6116943359375	-335.416748046875	-982.1605224609375	999.3765869140625	-325.0814208984375	-912.6277465820312	724.8804321289062	-303.6996459960938	-962.2974853515625	793.9849243164062	-340.4287109375	-901.9630126953125	799.281005859375	-299.1682739257812	-1023.036437988281	1420.274536132812	164.6900024414062	-1045.908447265625	1362.67138671875	241.4521942138672	-1046.419677734375	1078.929077148438	310.3954772949219	-1092.867919921875	1059.895751953125	265.1267395019531	-940.1810302734375	874.4358520507812	289.9588928222656	-1012.895629882812	859.4374389648438	338.4239807128906	-1044.098266601562	1021.09033203125	323.2173461914062	-931.0761108398438	720.0684204101562	307.9763488769531	-920.2870483398438	780.2346801757812	308.5409545898438	-992.2625122070312	773.3731079101562	341.3414916992188	-994.6962890625	1641.92578125	94.17813873291016	-868.0657348632812	1661.807250976562	-68.12051391601562	-861.52099609375	1660.597290039062	62.09635925292969	-1019.854736328125	1647.797119140625	-81.42216491699219	-998.17578125	862.7281494140625	-195.5706329345703	-1075.1640625	861.303955078125	196.1698455810547	-959.5643920898438	895.7269897460938	152.5555877685547	-909.7960205078125	892.8763427734375	-101.8882522583008	-1031.90673828125	445.0873107910156	-174.5159301757812	-991.0362548828125	594.5514526367188	-186.3326873779297	-1128.087768554688	43.34644317626953	-187.4487762451172	-1050.170776367188	300.0784301757812	-194.2794952392578	-899.610595703125	44.51676559448242	-102.0095901489258	-978.624267578125	49.85614395141602	-78.80242156982422	-973.0974731445312	48.21075057983398	-192.3296051025391	-1176.609741210938	47.12017440795898	-126.4217147827148	-1074.0458984375	470.121337890625	197.0749359130859	-1039.313110351562	729.0526123046875	218.1410675048828	-1138.080444335938	41.51042556762695	220.9230651855469	-1081.353759765625	330.2802429199219	215.9084014892578	-922.2552490234375	47.69158935546875	176.0442657470703	-984.3388061523438	53.79044723510742	139.6519927978516	-1004.316711425781	45.95843505859375	247.1270446777344	-1202.119262695312	33.47262954711914	175.0264434814453	
160	1.59	-1162.932373046875	970.2528076171875	45.15385437011719	-1141.40380859375	967.6713256835938	-94.90587615966797	-1138.36767578125	1058.737426757812	-6.635705947875977	-865.2691040039062	1247.774169921875	4.987394332885742	-1156.171142578125	1183.639282226562	-12.96672534942627	-1082.22265625	1448.844482421875	0.9853826761245728	-898.8436279296875	1361.433837890625	-3.485471248626709	-1152.7548828125	1332.853515625	94.4581298828125	-1111.617431640625	1401.560180664062	-100.2678527832031	-1003.764953613281	1417.374755859375	-174.5857696533203	-1015.470336914062	1298.552124023438	-271.6940002441406	-1000.494018554688	1086.099609375	-310.0443115234375	-1072.049926757812	1070.61181640625	-236.8923797607422	-915.608642578125	883.3488159179688	-284.4494323730469	-968.2619018554688	870.496337890625	-335.7644348144531	-981.7528686523438	999.160400390625	-325.4227294921875	-912.3435668945312	724.6989135742188	-304.4796752929688	-962.0120849609375	793.9273681640625	-340.9576721191406	-901.5094604492188	799.0613403320312	-299.8114013671875	-1021.7021484375	1419.9248046875	164.1867980957031	-1044.455200195312	1362.278686523438	240.9405975341797	-1045.041259765625	1078.486083984375	309.55322265625	-1091.551635742188	1059.511840820312	264.305908203125	-938.90380859375	873.9495239257812	288.6958312988281	-1011.560485839844	858.9322509765625	337.2687683105469	-1042.723754882812	1020.625	322.3233337402344	-929.854248046875	719.5628662109375	306.4855041503906	-919.029296875	779.7212524414062	307.0984497070312	-990.9749145507812	772.8564453125	340.0321960449219	-993.3572387695312	1641.843505859375	93.67711639404297	-867.0219116210938	1661.5458984375	-68.84904479980469	-860.2294921875	1660.361083984375	61.32240295410156	-1018.824462890625	1647.767700195312	-81.90424346923828	-996.5382080078125	862.64990234375	-196.6784820556641	-1073.980712890625	861.1488037109375	195.2322387695312	-958.3582763671875	895.4329223632812	151.7217254638672	-908.5126342773438	892.7108154296875	-102.6917190551758	-1030.789794921875	444.9563903808594	-175.031982421875	-989.6701049804688	594.3532104492188	-186.9081573486328	-1128.045654296875	43.3134880065918	-187.6028747558594	-1049.306640625	299.8564453125	-194.6030426025391	-899.6871948242188	44.5736198425293	-101.8589782714844	-978.7916870117188	49.7607536315918	-78.69151306152344	-973.1493530273438	48.37050247192383	-192.2041015625	-1176.645874023438	47.15651321411133	-126.5648193359375	-1073.412963867188	470.0633850097656	196.8022308349609	-1038.338134765625	728.95458984375	217.4633178710938	-1138.166259765625	41.39434814453125	221.0970916748047	-1081.068237304688	330.3097534179688	215.7753295898438	-922.2943725585938	47.74227142333984	176.2678833007812	-984.4258422851562	53.86613082885742	139.7730865478516	-1004.341918945312	45.89937210083008	247.2375335693359	-1202.181762695312	33.34496688842773	175.1475067138672	
161	1.6	-1161.438354492188	970.0704956054688	44.10717010498047	-1139.905639648438	967.6365966796875	-95.93852233886719	-1137.0712890625	1058.429077148438	-7.286352157592773	-864.18798828125	1247.656127929688	4.015981197357178	-1154.949584960938	1183.379760742188	-13.39434719085693	-1081.255126953125	1448.66748046875	0.6315950155258179	-897.9024658203125	1361.262451171875	-4.354562282562256	-1151.5	1332.526489257812	94.14331817626953	-1110.9091796875	1401.421264648438	-100.5541000366211	-1003.250427246094	1417.273559570312	-175.1611480712891	-1015.162963867188	1298.428344726562	-272.2142944335938	-1000.118957519531	1085.9140625	-310.4638061523438	-1071.466674804688	1070.418090820312	-237.1155853271484	-915.0230712890625	883.1778564453125	-284.9403381347656	-967.8956298828125	870.3749389648438	-336.1761474609375	-981.3546142578125	998.9566650390625	-325.8348693847656	-911.959228515625	724.5296020507812	-305.2880859375	-961.6920166015625	793.8475341796875	-341.5183715820312	-901.0498046875	798.8614501953125	-300.5188903808594	-1020.333862304688	1419.555419921875	163.6602325439453	-1042.9482421875	1361.85693359375	240.3971862792969	-1043.608032226562	1078.037109375	308.6969299316406	-1090.195434570312	1059.119873046875	263.48876953125	-937.626953125	873.4243774414062	287.4248352050781	-1010.203247070312	858.4130249023438	336.1190490722656	-1041.296020507812	1020.143432617188	321.4194641113281	-928.61572265625	719.0320434570312	304.9924011230469	-917.7511596679688	779.182861328125	305.6536560058594	-989.6610107421875	772.325927734375	338.7215270996094	-992.0086059570312	1641.758056640625	93.13176727294922	-865.9844360351562	1661.268676757812	-69.61168670654297	-858.9331665039062	1660.104125976562	60.51394271850586	-1017.791259765625	1647.734985351562	-82.41522216796875	-994.8922729492188	862.5910034179688	-197.8551330566406	-1072.665893554688	860.9642333984375	194.2299957275391	-957.031494140625	895.1168823242188	150.7840881347656	-907.1852416992188	892.56884765625	-103.625244140625	-1029.642700195312	444.8011779785156	-175.6057586669922	-988.2571411132812	594.1658935546875	-187.5506134033203	-1127.997192382812	43.27521514892578	-187.7864227294922	-1048.389404296875	299.6140441894531	-194.9482269287109	-899.7703247070312	44.62396240234375	-101.7029800415039	-978.9411010742188	49.68235015869141	-78.59128570556641	-973.2044677734375	48.51948547363281	-192.0804748535156	-1176.689575195312	47.21050262451172	-126.7005615234375	-1072.656616210938	469.9754333496094	196.4714508056641	-1037.246459960938	728.8517456054688	216.7173767089844	-1138.256469726562	41.28738784790039	221.2673950195312	-1080.72021484375	330.3490600585938	215.5957946777344	-922.3377685546875	47.79922103881836	176.4960632324219	-984.5170288085938	53.93984222412109	139.8831939697266	-1004.369995117188	45.84250259399414	247.346923828125	-1202.247680664062	33.22884750366211	175.2599334716797	
162	1.61	-1159.86474609375	969.861572265625	43.0396614074707	-1138.37158203125	967.6085815429688	-97.00643157958984	-1135.704956054688	1058.089477539062	-7.978202342987061	-863.0698852539062	1247.563110351562	2.973211288452148	-1153.674194335938	1183.077514648438	-13.83040237426758	-1080.282592773438	1448.46484375	0.2649460136890411	-896.9269409179688	1361.108520507812	-5.265183925628662	-1150.203369140625	1332.15771484375	93.81655120849609	-1110.203857421875	1401.250854492188	-100.8473663330078	-1002.779968261719	1417.173583984375	-175.77490234375	-1014.884155273438	1298.303344726562	-272.7675170898438	-999.7351684570312	1085.727416992188	-310.9440002441406	-1070.867309570312	1070.223388671875	-237.3747406005859	-914.3988037109375	883.0264892578125	-285.5222778320312	-967.5220947265625	870.25439453125	-336.6491394042969	-980.9642944335938	998.7691040039062	-326.3161926269531	-911.479248046875	724.3637084960938	-306.1110534667969	-961.3311767578125	793.7578735351562	-342.1117248535156	-900.57373046875	798.6868286132812	-301.2784729003906	-1018.936706542969	1419.170288085938	163.1087036132812	-1041.393432617188	1361.408813476562	239.8191375732422	-1042.12158203125	1077.584838867188	307.8296813964844	-1088.79931640625	1058.724731445312	262.6785583496094	-936.3545532226562	872.8629760742188	286.151611328125	-1008.822937011719	857.8817138671875	334.9846496582031	-1039.81689453125	1019.651977539062	320.5075988769531	-927.3692626953125	718.4769897460938	303.5056762695312	-916.461669921875	778.6194458007812	304.2181701660156	-988.3255004882812	771.7821044921875	337.419677734375	-990.6510620117188	1641.669555664062	92.54026031494141	-864.9492797851562	1660.97998046875	-70.41855621337891	-857.6328125	1659.830200195312	59.66997146606445	-1016.7607421875	1647.695678710938	-82.96089172363281	-993.2456665039062	862.5543823242188	-199.1009216308594	-1071.208618164062	860.7496337890625	193.1685791015625	-955.5784301757812	894.7822265625	149.7285461425781	-905.7924194335938	892.4593505859375	-104.696647644043	-1028.473510742188	444.6336059570312	-176.2443542480469	-986.7965087890625	593.9971313476562	-188.2660064697266	-1127.949462890625	43.24005889892578	-188.0030517578125	-1047.430419921875	299.3574523925781	-195.3240051269531	-899.861083984375	44.66485977172852	-101.5458908081055	-979.0708618164062	49.62434768676758	-78.50224304199219	-973.2649536132812	48.65421295166016	-191.9665222167969	-1176.7392578125	47.27871322631836	-126.8381652832031	-1071.742065429688	469.8540954589844	196.0811614990234	-1036.00634765625	728.7463989257812	215.8897705078125	-1138.349609375	41.18992233276367	221.4327239990234	-1080.282348632812	330.3924865722656	215.3567504882812	-922.3883666992188	47.86259460449219	176.7269592285156	-984.6093139648438	54.00815200805664	139.9810028076172	-1004.401489257812	45.7877082824707	247.4526214599609	-1202.317260742188	33.12241744995117	175.365234375	
